<?xml version="1.0" encoding="utf-8"?>
<!-- Generator: Adobe Illustrator 24.0.0, SVG Export Plug-In . SVG Version: 6.00 Build 0)  -->
<svg version="1.1" id="Layer_1" xmlns="http://www.w3.org/2000/svg" xmlns:xlink="http://www.w3.org/1999/xlink" x="0px" y="0px"
	 viewBox="0 0 256 256" style="enable-background:new 0 0 256 256;" xml:space="preserve">
<style type="text/css">
	.st0{fill:#FFB69F;}
	.st1{fill:#72C2E9;}
	.st2{fill:#C2E5FF;}
	.st3{fill:#FC5D3D;}
	.st4{fill:#AFAFAF;}
	.st5{fill:#FFCBC3;}
	.st6{fill:#F0C020;}
	.st7{fill:#F8E5B0;}
	.st8{fill:#EFEFEF;}
	.st9{fill:#EEC21E;}
	.st10{fill:#FFFFFF;}
	.st11{fill:#F1BF21;}
	.st12{fill:#E8A61E;}
	.st13{fill:#7D7B79;}
	.st14{fill:#B34F33;}
	.st15{fill:#F8E5B2;}
	.st16{fill:#C5E5FE;}
	.st17{fill:#4C4944;}
	.st18{fill:#4BA5C8;}
	.st19{fill:#AFAEAF;}
	.st20{fill:#CF941C;}
	.st21{fill:#7C7B7A;}
	.st22{fill:#FAE0E1;}
	.st23{fill:#13BF6D;}
	.st24{fill:#76FFBB;}
	.st25{fill:#F2E1D7;}
	.st26{fill:#878787;}
	.st27{fill:#F9E5AF;}
	.st28{fill:#E8A61F;}
	.st29{fill:none;stroke:#000000;stroke-width:5;stroke-linecap:round;stroke-linejoin:round;stroke-miterlimit:10;}
	.st30{fill:#EFEFF0;}
	.st31{fill:#E8A61B;}
	.st32{fill:#EFEFEE;}
	.st33{fill:#4C4945;}
	.st34{fill:#EA8F7D;}
	.st35{fill:#D6C0B3;}
	.st36{fill:#EEC120;}
</style>
<g>
</g>
<g>
	<g>
		<g>
			<path class="st1" d="M67.94,16.69l-38.7,79.92l-0.01,0.01L18.8,91.48c-2.47-1.22-3.49-4.19-2.29-6.66l34.32-70.86
				c1.2-2.48,4.19-3.52,6.68-2.32L67.94,16.69z"/>
		</g>
		<g>
			<path class="st6" d="M140.6,22.7c-0.05,0.08-22.88,47.2-22.92,47.28c-15.93,1.14-24.95,19.34-15.84,32.72
				c-6.725,13.876-2.125,4.377-22.91,47.31c-23.31-12.6-39.81-31.33-49.7-53.38v-0.01l0.01-0.01l38.7-79.92
				C92.78,10.42,118.62,12.9,140.6,22.7z"/>
		</g>
		<g>
			<path class="st6" d="M111.3,131.569v32.56c-4.66-1.35-9.14-3.01-13.39-4.93L111.3,131.569z"/>
		</g>
		<g>
			<path class="st6" d="M204.88,76.299l-44.01,90.88c-11.39,1.83-22.79,1.85-33.66,0.35v-57.1c11.14-4.17,17.51-19.29,9.47-31.24
				v-0.01l22.91-47.31C179.91,42.999,194.83,58.199,204.88,76.299z"/>
		</g>
		<g>
			<path class="st7" d="M126.084,30.508c-16.284-5.239-33.828-6.17-50.733-2.693c-1.353,0.28-2.676-0.593-2.953-1.945
				c-0.277-1.352,0.593-2.674,1.945-2.952c17.75-3.649,36.171-2.671,53.272,2.831c1.314,0.423,2.037,1.831,1.614,3.146
				C128.806,30.21,127.395,30.93,126.084,30.508z"/>
		</g>
		<g>
			<path class="st7" d="M153.016,160.255c-1.242-0.602-1.762-2.097-1.16-3.34l1.437-2.966c0.601-1.243,2.094-1.763,3.34-1.16
				c1.242,0.602,1.762,2.097,1.16,3.34l-1.437,2.966C155.755,160.335,154.262,160.857,153.016,160.255z M158.811,148.288
				c-1.242-0.602-1.762-2.097-1.16-3.339l32.987-68.12c-7.257-11.273-16.75-20.902-28.234-28.635
				c-1.146-0.771-1.448-2.325-0.677-3.47s2.324-1.449,3.47-0.677c12.464,8.393,22.698,18.922,30.419,31.296
				c0.455,0.729,0.503,1.64,0.129,2.413l-33.594,69.373C161.551,148.366,160.059,148.892,158.811,148.288z"/>
		</g>
		<g>
			<path class="st1" d="M111.3,110.389v21.18l-13.39,27.63l-0.37,0.78c-1.59,3.3-5.57,4.68-8.85,3.08l-7.07-3.43
				c-3.29-1.6-4.67-5.56-3.06-8.85l0.37-0.77c20.789-42.94,16.175-33.413,22.91-47.31C104.25,106.259,107.59,108.879,111.3,110.389z
				"/>
		</g>
		<g>
			<path class="st1" d="M159.96,31.099l-0.37,0.77l-22.91,47.31c-4.53-6.55-11.76-9.74-19-9.2
				c0.039-0.081,22.874-47.203,22.92-47.28c0-0.016,0.373-0.776,0.38-0.79c1.59-3.31,5.55-4.67,8.86-3.08l7.05,3.42
				C160.19,23.849,161.55,27.819,159.96,31.099z"/>
		</g>
		<g>
			<path class="st1" d="M13.02,189.699h44.93c-10.23,0-19.21,5.42-24.2,13.55H13.02c-3.73,0-6.77-3.04-6.77-6.77
				C6.25,192.739,9.29,189.699,13.02,189.699z"/>
		</g>
		<g>
			<path class="st1" d="M249.75,55.499c0,3.74-3.02,6.77-6.77,6.77h-16.26l-64.81,133.81l-1.62,3.35c-1.13,2.34-3.5,3.82-6.1,3.82
				H82.17c-5.17-8.39-14.29-13.55-24.22-13.55h92l10.92-22.52l44.01-90.88l11.5-23.76c1.18-2.41,3.59-3.81,6.11-3.81h20.49
				C246.73,48.729,249.75,51.769,249.75,55.499z"/>
		</g>
		<g>
			<path class="st13" d="M213.79,239.759c0,3.74-3.04,6.77-6.77,6.77h-36.68c-2.86,0-5.41-1.79-6.37-4.49l-13.87-38.79h4.09
				c2.6,0,4.97-1.48,6.1-3.82l1.62-3.35l13.19,36.91h31.92C210.75,232.989,213.79,236.029,213.79,239.759z"/>
		</g>
		<g>
			<path class="st13" d="M127.21,110.429v-13.43c0-4.43-3.62-7.95-7.95-7.95c-4.4,0-7.96,3.56-7.96,7.95v13.39
				c-3.71-1.51-7.05-4.13-9.46-7.69c-9.11-13.38-0.09-31.58,15.84-32.72c7.24-0.54,14.47,2.65,19,9.2v0.01
				C144.72,91.139,138.35,106.259,127.21,110.429z"/>
		</g>
		<g>
			<path class="st8" d="M127.21,96.999v92.7H111.3v-92.7c0-4.39,3.56-7.95,7.96-7.95C123.59,89.049,127.21,92.569,127.21,96.999z"/>
		</g>
		<g>
			<path class="st13" d="M86.37,218.119c0,15.7-12.72,28.41-28.42,28.41c-15.68,0-28.41-12.71-28.41-28.41
				c0-5.46,1.54-10.55,4.21-14.87c4.99-8.13,13.97-13.55,24.2-13.55c9.93,0,19.05,5.16,24.22,13.55
				C84.83,207.569,86.37,212.659,86.37,218.119z"/>
		</g>
		<g>
			<circle class="st8" cx="57.959" cy="218.118" r="12.244"/>
		</g>
	</g>
	<g>
		<path d="M165.63,84.971c1.132,0.746,2.695,0.455,3.46-0.71c0.77-1.14,0.45-2.7-0.7-3.46c-1.109-0.74-2.729-0.41-3.46,0.7
			C164.153,82.676,164.493,84.221,165.63,84.971z"/>
		<path d="M33.609,49.511c1.273,0.582,2.739,0.078,3.341-1.17c0.6-1.24,0.08-2.73-1.16-3.34c-1.2-0.58-2.76-0.03-3.34,1.16
			C31.85,47.401,32.37,48.901,33.609,49.511z"/>
		<path d="M57.959,232.865c8.131,0,14.745-6.614,14.745-14.744s-6.614-14.744-14.745-14.744c-8.13,0-14.744,6.614-14.744,14.744
			S49.829,232.865,57.959,232.865z M57.959,208.377c5.373,0,9.745,4.371,9.745,9.744s-4.372,9.744-9.745,9.744
			s-9.744-4.371-9.744-9.744S52.586,208.377,57.959,208.377z"/>
		<path d="M242.98,46.231h-20.49c-3.579,0-6.781,1.997-8.36,5.221l-9.461,19.54c-10.143-16.614-24.226-30.112-41.927-40.204
			c1.24-4.2-0.694-8.815-4.761-10.786l-7.059-3.424c-4.137-1.988-8.932-0.609-11.425,2.949
			c-22.213-9.346-47.383-11.292-71.266-5.468L58.59,9.391c-3.745-1.817-8.225-0.21-10.01,3.49L36.81,37.161
			c-0.602,1.268-0.072,2.744,1.16,3.34c1.22,0.6,2.75,0.05,3.34-1.15c0-0.01,0.01-0.01,0.01-0.02l11.761-24.27
			c0.536-1.137,1.92-1.799,3.34-1.17l8.18,3.96l-36.53,75.42l-8.17-4.03c-1.164-0.575-1.77-2.011-1.149-3.33l13.84-28.56
			c0.6-1.25,0.08-2.74-1.16-3.34c-1.21-0.59-2.76-0.04-3.34,1.15l-13.83,28.57c-1.809,3.69-0.235,8.193,3.43,9.99l9.654,4.767
			c10.226,22.332,26.928,40.459,48.428,52.607c-1.266,4.23,0.693,8.809,4.756,10.786l7.065,3.428
			c4.047,1.975,8.858,0.677,11.408-2.919c3.174,1.35,6.453,2.548,9.798,3.583v21.229c-14.011,0-85.039,0-95.78,0
			c-5.111,0-9.27,4.163-9.27,9.28c0,5.111,4.158,9.27,9.27,9.27h16.602c-1.698,3.876-2.582,8.081-2.582,12.37
			c0,8.25,3.2,16,9.029,21.84c0.95,0.94,2.591,0.94,3.54,0c0.971-0.97,0.98-2.56,0-3.54c0,0,0,0-0.01,0
			c-4.87-4.89-7.56-11.39-7.56-18.3c0-14.133,11.43-25.92,25.91-25.92c14.668,0,25.92,11.942,25.92,25.92
			c-0.03,14.26-11.65,25.88-25.92,25.91c-0.721,0-1.44-0.03-2.141-0.09c-1.37-0.11-2.58,0.93-2.689,2.29
			c-0.123,1.359,0.89,2.574,2.279,2.7c0.851,0.06,1.7,0.1,2.551,0.1c17.157,0,30.92-13.887,30.92-30.91
			c0-4.284-0.885-8.489-2.58-12.37h62.048l13.276,37.127c1.309,3.68,4.814,6.152,8.726,6.152h36.68c5.111,0,9.271-4.159,9.271-9.27
			s-4.159-9.27-9.271-9.27h-30.158l-12.243-34.261l63.669-131.459h14.693c5.111,0,9.27-4.159,9.27-9.27
			S248.092,46.231,242.98,46.231z M108.8,97.001v9.218c-6.83-4.675-10.628-14.19-6.211-23.314c2.885-5.96,8.535-9.949,15.276-10.431
			c12.804-0.953,23.112,11.34,19.021,24.098c-1.295,4.04-3.893,7.538-7.177,9.762v-9.333c0-5.762-4.688-10.45-10.45-10.45
			C113.492,86.551,108.8,91.239,108.8,97.001z M58.289,42.358c18.905,2.281,40.975,8.794,61.243,18.068
			c-1.1,2.271-2.262,4.667-3.495,7.211c-7.916,1.069-14.515,5.994-17.949,13.09c-3.575,7.388-2.997,15.603,0.894,22.139
			l-3.499,7.226C76.57,100.611,56.94,86.739,43.338,73.234L58.289,42.358z M129.71,170.351c8.814,1,17.635,1.049,26.869-0.048
			l-8.195,16.899H129.71V170.351z M159.191,164.911c-9.73,1.445-19.634,1.586-29.481,0.42v-33.887
			c13.265,5.136,27.25,9.156,40.105,11.528C164.306,154.351,166.653,149.504,159.191,164.911z M202.057,76.384l-10.621,21.935
			c-4.523-3.975-9.479-7.929-14.747-11.758c-1.069-0.78-2.71-0.52-3.489,0.56c-0.823,1.137-0.551,2.694,0.55,3.49
			c6.152,4.465,15.516,12.191,15.516,12.191l-17.19,35.501c-13.497-2.379-28.392-6.676-42.366-12.224v-13.995
			c6.008-2.86,10.568-8.607,12.301-15.236c1.618-6.192,0.581-12.653-2.48-17.818l3.502-7.232c4.611,2.313,9.381,4.938,14.236,7.874
			c1.105,0.678,2.684,0.401,3.44-0.85c0.71-1.18,0.33-2.72-0.851-3.43c-4.973-3.001-9.877-5.704-14.646-8.094l15.47-31.946
			C178.427,45.557,192.334,59.347,202.057,76.384z M148.749,21.081l7.05,3.42c2.046,0.992,2.903,3.464,1.911,5.51
			c-0.001,0.002-0.002,0.005-0.003,0.007l-21.578,44.564c-3.733-3.846-8.853-6.476-14.488-7.043
			c0.133-0.274,21.456-44.274,21.594-44.546C144.232,20.915,146.707,20.1,148.749,21.081z M137.209,23.962
			c-1.692,3.483-5.74,11.833-15.496,31.964c-20.142-9.227-42.078-15.802-61.121-18.324c3.37-6.96,3.54-7.31,9.087-18.765
			C92.322,13.374,116.151,15.194,137.209,23.962z M31.992,96.665l9.043-18.675c13.91,13.486,33.455,27.177,52.268,36.603
			l-15.471,31.949C57.521,134.963,41.724,117.783,31.992,96.665z M89.781,160.812l-7.067-3.429c-2.03-0.987-2.922-3.43-1.899-5.521
			c16.91-34.927,11.657-24.078,21.567-44.542c1.685,1.74,3.955,3.454,6.418,4.686v18.992
			c-14.365,29.643-12.993,26.804-13.512,27.899C94.303,160.94,91.835,161.814,89.781,160.812z M101.302,157.95l7.498-15.481v18.274
			C106.249,159.909,103.742,158.976,101.302,157.95z M113.8,97.001c0-3.005,2.449-5.45,5.46-5.45c3.005,0,5.45,2.445,5.45,5.45
			c0,10.103,0,79.857,0,90.2H113.8C113.8,177.086,113.8,107.106,113.8,97.001z M8.75,196.481c0-2.36,1.915-4.28,4.27-4.28h28.032
			c-3.512,2.298-6.473,5.311-8.663,8.55H13.02C10.665,200.751,8.75,198.836,8.75,196.481z M175.1,235.492h31.92
			c2.354,0,4.271,1.916,4.271,4.27c0,2.354-1.916,4.27-4.271,4.27h-36.68c-1.8,0-3.413-1.136-4.016-2.832l-12.675-35.448h0.54
			c2.853,0,5.521-1.351,7.258-3.535l11.298,31.616C173.101,234.827,174.043,235.492,175.1,235.492z M242.98,59.771H226.72
			c-0.958,0-1.832,0.548-2.25,1.41c-2.827,5.838-63.779,131.679-66.431,137.163c-0.706,1.462-2.218,2.407-3.85,2.407h-70.66
			c-2.2-3.238-5.174-6.258-8.681-8.55c26.042,0,47.537,0,75.102,0c0.958,0,1.832-0.547,2.249-1.409
			c1.834-3.787,58.305-120.383,66.426-137.151c0.729-1.486,2.209-2.41,3.865-2.41h20.49c2.354,0,4.27,1.916,4.27,4.27
			S245.335,59.771,242.98,59.771z"/>
		<path d="M47.04,241.631c-1.221-0.57-2.76,0-3.32,1.21c-0.595,1.295-0.002,2.754,1.21,3.32c0,0,0,0,0.01,0
			c1.23,0.597,2.736,0.044,3.32-1.21C48.84,243.701,48.29,242.211,47.04,241.631z"/>
	</g>
</g>
</svg>
